<?xml version="1.0" encoding="UTF-8"?>
<svg width="150px" height="78px" viewBox="0 0 150 78" version="1.1" xmlns="http://www.w3.org/2000/svg" xmlns:xlink="http://www.w3.org/1999/xlink">
    <title>设备默认</title>
    <g id="App（2）" stroke="none" stroke-width="1" fill="none" fill-rule="evenodd" opacity="0.15">
        <g id="运行状态-设备运行详情（筛选后）" transform="translate(-113.000000, -204.000000)" fill-rule="nonzero">
            <g id="编组-5" transform="translate(20.000000, 164.000000)">
                <g id="设备默认" transform="translate(93.000000, 40.000000)">
                    <polygon id="路径-2" fill="#0E4BA1" points="150 3.17196541 136.006066 0 133.996759 4.45522355 129.948961 39.8980582 129.948961 75.0313368 132.198917 78 150 71.9799165"></polygon>
                    <polygon id="路径-3" fill="#477DC8" points="4.19171107 17.8590508 133.996759 4.45522355 136.006066 0 6.72844324 14.9266477"></polygon>
                    <polygon id="路径-4" fill="#6392D3" points="1.63433498e-14 37.4693252 129.948961 39.8980582 133.996759 4.45522355 4.19171107 17.8590508"></polygon>
                    <polygon id="路径-4备份" fill="#B0C8EB" points="15.7048023 31.5706722 95.8859276 31.0206698 98.3359922 10.1112892 18.4616176 18.4988376"></polygon>
                    <polygon id="路径-4备份-2" fill="#B0C8EB" points="105.175565 22.8588605 125.191264 22.8588605 126.722873 8.92952542 106.602517 10.8218235"></polygon>
                    <polygon id="路径-5" fill="#477DC8" points="0 55.7120559 129.948961 75.0313368 129.948961 39.8980582 -1.0099063e-13 37.4693252"></polygon>
                    <polygon id="路径-6" fill="#335E9A" points="2.07210773 58.4559282 9.54006831e-14 55.7120559 129.948961 75.0313368 132.198917 78"></polygon>
                    <polygon id="路径-7" fill="#477DC8" points="13.187656 33.3303052 4.19171107 34.2971532 2.75791999 35.9643076 92.1772109 36.5451237 100.317561 33.3303052"></polygon>
                    <polygon id="路径-8" fill="#6392D3" points="92.8091538 75.0313368 92.8091538 36.5451237 2.75791999 35.9643076 2.75791999 60.1155309"></polygon>
                    <polygon id="路径-8备份" fill="#477DC8" points="81.9650401 73.1535997 81.9650401 43.400396 9.66946669 42.9341011 9.66946669 61.247711"></polygon>
                    <polygon id="路径-9" fill="#0E4BA1" points="100.317561 73.3021303 92.8091538 75.0313368 92.8091538 36.5451237 100.317561 33.3303052"></polygon>
                    <polygon id="路径-9备份" fill="#0E4BA1" points="17.3790001 62.4848371 9.66946669 61.247711 9.66946669 42.9341011 17.3790001 42.9341011"></polygon>
                    <path d="M15.32473,47.1293686 L81.9650401,50.8512931 L81.9650401,50.8512931 L81.9650401,56.250331 L15.1590461,51.7901486 C13.9469134,51.7092228 13.0050805,50.7024134 13.0050805,49.4875823 L13.0050805,49.3230785 C13.0050805,48.1096378 13.9887685,47.1259498 15.2022092,47.1259498 C15.2430733,47.1259498 15.2839294,47.1270898 15.32473,47.1293686 Z" id="矩形" fill="#B0C8EB"></path>
                    <path d="M14.9118685,54.719108 L81.9650401,60.9767481 L81.9650401,60.9767481 L81.9650401,65.6004607 L14.9097169,58.5709719 C13.8271357,58.4574836 13.0050805,57.5447467 13.0050805,56.4562332 C13.0050805,55.4926767 13.7861974,54.7115598 14.7497538,54.7115598 C14.8038799,54.7115598 14.8579766,54.7140786 14.9118685,54.719108 Z" id="矩形备份-3" fill="#B0C8EB"></path>
                </g>
            </g>
        </g>
    </g>
</svg>