<?xml version="1.0" encoding="UTF-8"?>
<svg width="156px" height="114px" viewBox="0 0 156 114" version="1.1" xmlns="http://www.w3.org/2000/svg" xmlns:xlink="http://www.w3.org/1999/xlink">
    <defs>
        <linearGradient x1="50%" y1="3.061617e-15%" x2="50%" y2="100%" id="linearGradient-1">
            <stop stop-color="#F1F1F1" offset="0%"></stop>
            <stop stop-color="#F1F1F1" stop-opacity="0" offset="100%"></stop>
        </linearGradient>
        <linearGradient x1="50%" y1="3.061617e-15%" x2="50%" y2="100%" id="linearGradient-2">
            <stop stop-color="#F1F1F1" offset="0%"></stop>
            <stop stop-color="#F1F1F1" stop-opacity="0" offset="100%"></stop>
        </linearGradient>
        <linearGradient x1="50%" y1="3.061617e-15%" x2="50%" y2="100%" id="linearGradient-3">
            <stop stop-color="#F1F1F1" offset="0%"></stop>
            <stop stop-color="#F1F1F1" stop-opacity="0" offset="100%"></stop>
        </linearGradient>
        <linearGradient x1="50%" y1="0.1953125%" x2="50%" y2="98.3609586%" id="linearGradient-4">
            <stop stop-color="#FDFDFD" offset="0%"></stop>
            <stop stop-color="#D6D6D6" offset="100%"></stop>
        </linearGradient>
    </defs>
    <g id="设备监控" stroke="none" stroke-width="1" fill="none" fill-rule="evenodd">
        <g id="实时监控" transform="translate(-583.000000, -136.000000)">
            <g id="设备" transform="translate(549.000000, 80.000000)">
                <g id="default-09" transform="translate(34.000000, 56.082937)">
                    <g id="-缺省背景">
                        <path d="M37.0693069,56.4061886 C37.0508461,52.4563478 33.857126,49.2668049 29.9249734,49.2668049 C29.0203937,49.2668049 28.1342748,49.4336996 27.3035383,49.7860328 C26.0112816,44.2599644 20.4914993,40.8108075 14.9901779,42.1274212 C11.3903199,42.9804384 8.51043351,45.7249288 7.49508895,49.3038926 C7.36586328,49.3038926 7.23663761,49.2853487 7.10741194,49.2853487 C3.19372017,49.2853487 0,52.4748916 0,56.4247325 C0,60.3745733 3.15679855,63.5455724 7.08895113,63.5455724 C7.08895113,63.5455724 7.08895113,63.5455724 7.08895113,63.5455724 L30.2388071,63.5455724 L30.2388071,63.5455724 C34.0601949,63.3972215 37.0693069,60.2447664 37.0693069,56.4061886 Z" id="路径" fill="url(#linearGradient-1)"></path>
                        <path d="M156,36.4862157 C156,33.9448503 154.016792,31.9002932 151.551683,31.9002932 C150.995644,31.9002932 150.421069,32.0149412 149.902099,32.2251294 C149.105109,28.6710394 145.676198,26.4736182 142.228752,27.2952627 C139.967525,27.8302869 138.169663,29.6073319 137.52095,31.9002932 C137.446812,31.9002932 137.354139,31.9002932 137.28,31.9002932 C134.814891,31.9002932 132.831683,33.9448503 132.831683,36.4862157 C132.831683,39.0275811 134.814891,41.0721382 137.28,41.0721382 L151.73703,41.0721382 L151.73703,41.0721382 C154.128,40.9765982 156,38.9511491 156,36.4862157 Z" id="路径" fill="url(#linearGradient-2)"></path>
                        <path d="M132.831683,14.5466726 C132.813222,10.6002044 129.619502,7.41338507 125.68735,7.41338507 C124.78277,7.41338507 123.896651,7.58013725 123.065915,7.93216962 C121.773658,2.4108198 116.253876,-1.03539183 110.752554,0.280097557 C107.152696,1.13238645 104.27281,3.87453334 103.257465,7.45044111 C103.12824,7.45044111 102.999014,7.43191309 102.869788,7.43191309 C98.9560964,7.43191309 95.7623762,10.6187324 95.7623762,14.5652006 C95.7623762,18.4931407 98.9376356,21.6984881 102.869788,21.6984881 C102.869788,21.6984881 102.869788,21.6984881 102.869788,21.6984881 L126.001183,21.6984881 L126.001183,21.6984881 C129.822571,21.5317359 132.831683,18.3819726 132.831683,14.5466726 Z" id="路径" fill="url(#linearGradient-1)"></path>
                        <path d="M78,44.9468683 C120.218324,44.9468683 154.455446,60.3857248 154.455446,79.4319654 C154.455446,98.4782061 120.218324,113.917063 78,113.917063 C35.7816759,113.917063 1.54455446,98.4782061 1.54455446,79.4319654 C1.54455446,60.3857248 35.7816759,44.9468683 78,44.9468683 Z" id="路径" fill="url(#linearGradient-3)"></path>
                        <g id="编组-2" transform="translate(41.702970, 37.972354)">
                            <path d="M5.52184672,24.4535313 C8.06855859,24.4535313 10.1419877,25.1998315 10.1419877,26.149668 C10.1419877,27.0768894 8.06855859,27.8458047 5.52184672,27.8458047 C2.97513485,27.8458047 0.901705719,27.0995046 0.901705719,26.149668 C0.901705719,25.1998315 2.97513485,24.4535313 5.52184672,24.4535313 L5.52184672,24.4535313 Z" id="路径" fill="#EAEAEA"></path>
                            <path d="M8.5643786,1.43130276 C8.58691587,1.72529979 8.45169223,1.86099072 8.5643786,2.33590899 C8.67706497,2.81082726 7.82064859,3.48928194 7.43751494,3.46666678 C7.0543813,3.44405163 7.41497767,3.7154335 7.43751494,3.9189699 C7.46005221,4.1225063 7.0543813,4.16773661 6.76139675,4.14512146 C6.46841219,4.1225063 6.33318856,3.24051522 6.31065128,3.01436367 C6.28811401,2.81082726 5.97259218,1.88360588 6.53602401,1.43130276 C7.09945584,1.0016148 7.91079768,1.0016148 8.33900587,0.978999648 C8.76721406,0.956384492 8.54184133,1.15992089 8.5643786,1.43130276 L8.5643786,1.43130276 Z" id="路径" fill="#F5E2D2"></path>
                            <path d="M10.1419877,3.9189699 C10.7054196,3.98681536 12.4182523,3.98681536 13.0718332,3.69281834 C13.7254142,3.39882131 15.7086942,4.34865786 15.1001878,4.59742457 C14.4916814,4.84619128 13.1394451,5.16280346 12.395715,5.27587924 C11.651985,5.38895502 9.62363044,5.43418533 9.46586953,5.27587924 C9.30810862,5.094958 9.57855589,3.85112443 10.1419877,3.9189699 L10.1419877,3.9189699 Z" id="路径" fill="#FFE2C8"></path>
                            <path d="M9.91661499,5.72818236 C10.7054196,5.97694907 12.6886996,6.4744825 13.0718332,6.40663703 C13.4549669,6.33879156 15.2579487,6.4744825 15.5509333,6.40663703 C15.8439178,6.33879156 16.8806324,7.15293717 16.6777969,7.31124326 C16.4749615,7.46954935 12.7788487,7.42431904 12.6210878,7.31124326 C12.4633269,7.19816748 10.0743759,7.15293717 9.69124226,6.85894015 C9.30810862,6.54232797 9.12781043,5.47941565 9.91661499,5.72818236 L9.91661499,5.72818236 Z" id="路径" fill="#FFE2C8"></path>
                            <path d="M10.1419877,3.46666678 C10.1194505,3.94158505 9.75885408,5.16280346 9.46586953,5.27587924 C9.17288498,5.38895502 7.43751494,4.14512146 7.43751494,4.14512146 C7.43751494,4.14512146 7.91079768,3.89635474 8.33900587,3.9189699 C8.94751224,3.67020318 9.53348135,3.60235772 10.1419877,3.46666678 L10.1419877,3.46666678 Z" id="路径" fill="#2886E8"></path>
                            <path d="M6.53602401,24.8832193 C6.01766673,24.9510648 5.92751764,24.8153738 5.85990582,25.1093709 C5.792294,25.4033679 5.74721945,25.9913619 6.98676948,26.2401286 C8.2263195,26.4888954 9.44333225,26.0365922 8.78975133,25.561674 C8.13617041,25.0867557 7.0543813,24.837989 6.53602401,24.8832193 L6.53602401,24.8832193 Z" id="路径" fill="#0B0B0B"></path>
                            <path d="M8.11363314,13.1685686 C8.27139405,14.2540961 8.63199042,19.3877364 8.11363314,20.1566517 C7.59527585,20.925567 7.46005221,24.702298 7.43751494,24.8832193 C7.41497767,25.0867557 6.28811401,25.4033679 6.08527855,24.8832193 C5.88244309,24.3630707 6.28811401,19.9983456 6.31065128,19.025894 C6.33318856,18.0534423 6.24303946,13.372105 6.31065128,13.1685686 C6.3782631,12.942417 7.95587222,12.060426 8.11363314,13.1685686 L8.11363314,13.1685686 Z" id="路径" fill="#3D3D3D"></path>
                            <path d="M7.21214221,13.1685686 C7.18960494,14.7968598 6.87408311,18.5735908 6.31065128,19.025894 C5.74721945,19.4781971 2.0961812,22.6217037 1.57782391,22.8704704 C1.05946663,23.1192371 0.338273889,22.5312431 1.12707845,21.7397126 C1.91588301,20.9481822 4.16961033,18.7092818 4.2822967,18.1212877 C4.39498306,17.5559088 4.34990852,13.4173353 4.2822967,12.942417 C4.21468488,12.4674988 7.23467948,11.5402774 7.21214221,13.1685686 L7.21214221,13.1685686 Z" id="路径" fill="#5F5F5F"></path>
                            <path d="M6.08527855,3.9189699 C7.00930675,3.89635474 8.13617041,4.5295791 8.5643786,4.82357613 C8.99258679,5.11757315 9.84900317,5.52464596 10.1419877,5.5020308 C10.4349723,5.47941565 9.91661499,7.31124326 9.91661499,7.31124326 L8.78975133,7.08509171 C8.78975133,7.08509171 9.17288498,12.1282714 9.01512406,12.7162655 C8.85736315,13.3042595 8.36154314,13.4173353 8.11363314,13.3947202 C7.86572313,13.372105 4.93587762,13.5077959 4.50766943,13.3947202 C4.07946124,13.2816444 3.62871577,12.8067261 3.6061785,12.2639624 C3.58364123,11.1558197 5.02602671,4.21296692 6.08527855,3.9189699 L6.08527855,3.9189699 Z" id="路径" fill="#409EFF"></path>
                            <path d="M8.78975133,0.75284809 C8.2263195,0.232699507 7.18960494,-0.377909698 6.31065128,0.300544975 C5.43169763,0.978999648 5.36408581,2.9465182 6.08527855,2.78821211 C6.3782631,2.44898477 5.65707036,2.01929681 6.76139675,1.43130276 C7.86572313,0.865923869 9.35318316,1.29561183 8.78975133,0.75284809 L8.78975133,0.75284809 Z" id="路径" fill="#000000" fill-rule="nonzero"></path>
                            <path d="M0.676332987,21.9658642 C1.10454118,22.1241703 1.78065937,22.6217037 2.25394211,23.3227735 C2.72722485,24.0012282 2.32155393,24.4309162 2.02856938,24.4535313 C1.73558483,24.4761465 -0.0223224817,23.0061614 0.000214791454,22.6443189 C0.0227520646,22.2824764 0.248124796,21.8075581 0.676332987,21.9658642 L0.676332987,21.9658642 Z" id="路径" fill="#0B0B0B"></path>
                        </g>
                        <path d="M22.0117664,60.3823752 L22.9444684,60.3823752 C23.0563926,60.3823752 23.1310088,60.4573843 23.1310088,60.5698981 L23.1310088,67.1331997 C23.1310088,67.2457135 23.0563926,67.3207226 22.9444684,67.3207226 L22.0117664,67.3207226 C21.8998422,67.3207226 21.825226,67.2457135 21.825226,67.1331997 L21.825226,60.5698981 C21.825226,60.4573843 21.8998422,60.3823752 22.0117664,60.3823752 Z" id="路径" fill="#D2D2D2" fill-rule="nonzero"></path>
                        <path d="M130.391735,55.5067797 L130.951356,55.5067797 C131.06328,55.5067797 131.137896,55.5817888 131.137896,55.6943026 L131.137896,61.3199897 C131.137896,61.4325035 131.06328,61.5075126 130.951356,61.5075126 L130.391735,61.5075126 C130.279811,61.5075126 130.205194,61.4325035 130.205194,61.3199897 L130.205194,55.6943026 C130.205194,55.5817888 130.279811,55.5067797 130.391735,55.5067797 Z" id="路径" fill="#D2D2D2" fill-rule="nonzero"></path>
                        <path d="M145.314966,64.1328333 L145.688047,64.1328333 C145.799971,64.1328333 145.874587,64.2078424 145.874587,64.3203562 L145.874587,67.6957685 C145.874587,67.8082822 145.799971,67.8832914 145.688047,67.8832914 L145.314966,67.8832914 C145.203042,67.8832914 145.128426,67.8082822 145.128426,67.6957685 L145.128426,64.3203562 C145.128426,64.2078424 145.203042,64.1328333 145.314966,64.1328333 Z" id="路径" fill="#D2D2D2" fill-rule="nonzero"></path>
                        <path d="M130.391735,48.1933864 C126.772851,52.0751105 125.896111,57.0257152 130.391735,57.1944858 C134.887358,57.3632564 134.868704,51.3250189 130.391735,48.1933864 Z" id="路径" fill="#E7E7E7" fill-rule="nonzero"></path>
                        <path d="M145.296312,58.1321003 C142.442244,61.1512191 141.770699,65.0141909 145.296312,65.1267047 C148.821926,65.2392184 148.803272,60.5698981 145.296312,58.1321003 Z" id="路径" fill="#E7E7E7" fill-rule="nonzero"></path>
                        <path d="M22.2542689,48.1933864 C17.0871,53.6878075 15.8559334,60.7199164 22.2542689,60.9449439 C28.6339504,61.1699714 28.6339504,52.6376792 22.2542689,48.1933864 Z" id="路径" fill="#E7E7E7" fill-rule="nonzero"></path>
                    </g>
                    <path d="M78,52.6963283 C91.1965226,52.6963283 101.940594,54.4012095 101.940594,56.5710583 C101.940594,58.6892441 91.1965226,60.4457883 78,60.4457883 C64.8034774,60.4457883 54.0594059,58.7409071 54.0594059,56.5710583 C54.0594059,54.4012095 64.8034774,52.6963283 78,52.6963283 L78,52.6963283 Z" id="路径" fill="#E1E1E1"></path>
                    <g id="编组" transform="translate(56.376238, 13.949028)" fill-rule="nonzero">
                        <path d="M41.0851485,43.3969762 L2.16237624,43.3969762 C0.97137995,43.3969762 0,42.4222395 0,41.2271274 L0,2.16984881 C0,0.974736771 0.97137995,0 2.16237624,0 L41.0851485,0 C42.2761448,0 43.2475248,0.974736771 43.2475248,2.16984881 L43.2475248,41.2271274 C43.2475248,42.4222395 42.2761448,43.3969762 41.0851485,43.3969762 Z" id="路径" fill="url(#linearGradient-4)"></path>
                        <path d="M30.1427944,19.6022885 L19.4958805,13.5989149 C17.8440889,12.6687139 15.7820963,13.8314651 15.7820963,15.6954446 L15.7820963,27.7057696 C15.7820963,29.5697491 17.8440889,30.7325003 19.4958805,29.8022994 L30.1464569,23.795348 C31.794586,22.8615694 31.794586,20.5360671 30.1427944,19.6022885 L30.1427944,19.6022885 Z" id="路径" fill="#DADADA"></path>
                    </g>
                </g>
            </g>
        </g>
    </g>
</svg>