<?xml version="1.0" encoding="utf-8"?>
<!-- Generator: Adobe Illustrator 24.2.0, SVG Export Plug-In . SVG Version: 6.00 Build 0)  -->
<svg version="1.1" id="图层_1" xmlns="http://www.w3.org/2000/svg" xmlns:xlink="http://www.w3.org/1999/xlink" x="0px" y="0px"
	 viewBox="0 0 174 36" style="enable-background:new 0 0 174 36;" xml:space="preserve">
<style type="text/css">
	.st0{fill:#C1212D;}
	.st1{fill:#FFFFFF;}
</style>
<path class="st0" d="M12.6,36h15L20,23L12.6,36z M20,0L0,36h5.3c2.4,0,3.3-0.8,4.5-3l9.5-17.2c0.2-0.4,0.7-0.5,1-0.3
	c0.1,0.1,0.2,0.2,0.3,0.3l9.4,17c1.2,2.1,2.5,3.2,4.9,3.2h5L20,0z"/>
<path class="st1" d="M57.9,13.3v-2.6h16.2v2.6H68c-0.5,1.6-1,3.2-1.7,4.7h0.9v18h-3.8V22.9c-1.8,2.4-4,4.5-6.3,6.3v2.2
	c-3.1,1.2-6.3,1.9-9.6,2.2V31c1.2-0.1,2.3-0.3,3.2-0.5v-8.6h-2.8v-2.4h2.8v-6.4h-3v-2.5h9.5v2.5h-3v6.4h2.7v2.4h-2.7v7.9
	c0.6-0.1,1.1-0.3,1.6-0.5c0.2-0.1,0.4-0.1,0.6-0.1v-2.3c3.7-3.8,6.3-8.5,7.5-13.6H57.9z M74.5,29.1c-1.9-2.2-4-4.2-6.4-5.9V20
	c2.4,1.2,4.6,2.8,6.4,4.7V29.1z"/>
<path class="st1" d="M77.1,33.8c1.3-2.8,2.1-5.7,2.6-8.8h3c-0.4,3-1.1,5.9-2,8.8L77.1,33.8z M79.8,23.8V10.1h22.5v9.6
	c0.2,2.8-1.2,4.2-4,4.1L79.8,23.8z M83.3,12.5v3.2h5.9v-3.1L83.3,12.5z M83.3,21.3h5.9v-3.2h-5.9V21.3z M88.1,35.3
	c-2.7,0.1-4.1-1.2-4-3.8V25h3.6v6c-0.1,1.4,0.6,2.1,2,2h4.4c1.3,0.1,2-0.5,1.9-1.8v-0.6H99v1c0.1,2.5-1.2,3.7-3.8,3.6L88.1,35.3z
	 M92.4,30c-0.3-1.7-0.7-3.4-1.3-5h3c0.8,1.6,1.3,3.3,1.6,5H92.4z M98.8,12.5h-5.9v3.2h5.9V12.5z M97,21.4c1.2,0.1,1.8-0.5,1.8-1.8
	v-1.5h-5.8v3.3H97z M101.2,33.8c-0.4-3-1.2-5.9-2.2-8.8h3c1.1,2.8,2,5.8,2.6,8.8L101.2,33.8z"/>
<path class="st1" d="M107.4,21.4v-2.6c0.9-1.6,1.2-4.3,1.2-8.1h2.5c0,1,0,2-0.1,2.8h1.3V8.9h3.3v4.6h2.1v2.3h-2.1v7.7l2.6-0.7v2.3
	c-0.3,0.1-0.5,0.2-0.8,0.2c-0.6,0.3-1.1,0.5-1.8,0.7v9.7h-3.3V27c-1.2,0.2-2.7,0.4-4.5,0.6v-3c1.5-0.1,3-0.2,4.5-0.5v-8.3h-1.5
	C110.4,18,109.2,20,107.4,21.4z M117.4,35.9v-3.2c2.7-4.6,4.1-10.4,4.2-17.2c-1,1.5-2.4,2.8-4.1,3.5v-2.4c1.6-1.5,2.6-4,3-7.6h3.3
	c-0.1,0.3-0.2,0.6-0.2,0.9c-0.1,0.7-0.3,1.3-0.5,2h10.7v19.3c0.1,2.7-1.1,4-3.6,3.9h-2.5v-2.1h1.3c1.2,0,1.7-0.6,1.6-1.9V14.3h-1.3
	c0.3,9.8-1.9,17-6.6,21.6v-3.2c2.6-4.8,3.8-10.9,3.8-18.4h-2C124.6,23.6,122.2,30.8,117.4,35.9L117.4,35.9z"/>
<path class="st1" d="M137.6,12.9v-2.5h11.6v2.5h-1.3v15.5c0.6-0.2,1.2-0.3,1.9-0.4v2.2l-0.5,0.2c-0.4,0.1-0.9,0.2-1.4,0.4v5H145
	v-4.3c-1.8,0.3-4.3,0.6-7.6,0.8v-2.8l1.5-0.1V12.9H137.6z M141.9,12.9v3.8h3v-3.8H141.9z M141.9,19v3.8h3V19L141.9,19z M141.9,29.2
	c1,0,2-0.1,3-0.4v-3.8h-3V29.2z M149.8,15.1v-2.5h1.9c-0.5-1.1-0.8-2.2-0.9-3.4h3.3c0.1,1.2,0.5,2.3,1.1,3.4h3.1
	c0.5-1,0.8-2.1,0.9-3.3h3.4c-0.2,1.1-0.5,2.2-0.9,3.3h2.2v2.5h-5.4v6.1h6.2v2.5h-6.1c0.3,3.9,2.3,7.1,6.1,9.7v2.5
	c-3.9-1.9-6.6-4.3-8-7.3c-1.7,3.2-4.5,5.8-7.9,7.3v-2.3c3.7-2.7,5.7-6,6-9.8H149v-2.5h5.8v-6.1H149.8z"/>
</svg>
