<?xml version="1.0" encoding="utf-8"?>
<!-- Generator: Adobe Illustrator 24.2.0, SVG Export Plug-In . SVG Version: 6.00 Build 0)  -->
<svg version="1.1" id="图层_1" xmlns="http://www.w3.org/2000/svg" xmlns:xlink="http://www.w3.org/1999/xlink" x="0px" y="0px"
	 viewBox="0 0 280 60" style="enable-background:new 0 0 280 60;" xml:space="preserve">
<style type="text/css">
	.st0{fill:#C1212D;}
	.st1{fill:#FFFFFF;}
</style>
<path class="st0" d="M21,60h24.9L33.4,38.4L21,60z M33.4,0L0,60h8.8c4,0,5.5-1.4,7.6-4.9l15.9-28.8c0.4-0.6,1.2-0.8,1.8-0.5
	c0.2,0.1,0.4,0.3,0.5,0.5l15.7,28.3c2,3.5,4.2,5.3,8.2,5.3h8.4L33.4,0z"/>
<path class="st1" d="M96.5,22.1v-4.3h27v4.3h-10.2c-0.8,2.7-1.7,5.3-2.7,7.8h1.6V60h-6.2V38.1c-3,4-6.6,7.5-10.5,10.5v3.7
	c-5.1,2-10.5,3.2-16,3.7v-4.5c2.1-0.3,3.8-0.5,5.3-0.8V36.6h-4.7v-3.9h4.7V21.9h-5.1v-4.1h15.8v4.1h-4.9v10.8h4.5v3.9h-4.5v13.1
	c0.9-0.2,1.8-0.5,2.7-0.8c0.3-0.1,0.7-0.2,1-0.2v-3.9c6.7-7.2,10.8-14.7,12.5-22.7H96.5z M124.2,48.5c-3.1-3.7-6.7-7-10.7-9.8v-5.5
	c4.9,2.7,8.5,5.3,10.7,7.8V48.5z"/>
<path class="st1" d="M128.5,56.3c2.1-4.7,3.6-9.6,4.3-14.7h5.1c-0.7,5-1.8,9.9-3.3,14.7H128.5z M133,39.7V16.8h37.5v16
	c0.3,4.7-2,6.9-6.6,6.8L133,39.7z M138.9,20.9v5.3h9.8v-5.3L138.9,20.9z M138.9,35.6h9.8v-5.5h-9.8V35.6z M146.9,58.8
	c-4.6,0.1-6.8-2-6.6-6.2V41.6h6.1v10c-0.1,2.3,1,3.5,3.3,3.3h7.4c2.2,0.1,3.2-0.8,3.1-2.9v-1h4.9v1.8c0.1,4.2-2,6.2-6.2,6.1
	L146.9,58.8z M154.1,50c-0.4-2.9-1.2-5.7-2.1-8.4h5.1c1.3,2.7,2.2,5.5,2.7,8.4H154.1z M164.6,20.9h-9.8v5.3h9.8V20.9z M161.7,35.6
	c2.1,0.1,3.1-0.8,2.9-2.9v-2.5h-9.8v5.5H161.7z M168.7,56.3c-0.7-5-2-9.9-3.7-14.7h5.1c1.9,4.7,3.3,9.6,4.3,14.7H168.7z"/>
<path class="st1" d="M179.1,35.6v-4.3c1.4-2.6,2.1-7.1,1.9-13.5h4.1c0,1.7-0.1,3.3-0.2,4.7h2.1v-7.6h5.5v7.6h3.5v3.9h-3.5v12.9
	l4.3-1.2V42c-0.4,0.2-0.9,0.3-1.4,0.4c-0.9,0.5-1.9,0.9-2.9,1.2v16.2h-5.5V45c-2.1,0.4-4.6,0.7-7.4,1v-5c2.5-0.1,5-0.4,7.4-0.8V26.4
	h-2.5C184,30.1,182.1,33.4,179.1,35.6z M195.7,59.8v-5.3c4.6-7.7,6.9-17.2,7-28.7c-1.3,2.2-3.6,4.2-6.8,5.9v-3.9
	c2.8-2.5,4.5-6.7,5.1-12.7h5.5c-0.2,0.5-0.3,1-0.4,1.6c-0.2,1.1-0.4,2.2-0.8,3.3H223v32.2c0.3,4.6-1.8,6.7-6.1,6.4h-4.1v-3.5h2.2
	c2,0,2.9-1,2.7-3.1V23.9h-2.1c0.5,16.3-3.1,28.2-10.9,35.9v-5.3c4.3-7.9,6.4-18.2,6.2-30.7h-3.3C207.6,39.4,203.6,51.3,195.7,59.8z"
	/>
<path class="st1" d="M229.3,21.5v-4.1h19.3v4.1h-2.1v25.8c1-0.3,2.1-0.5,3.1-0.6v3.7l-0.8,0.4c-0.6,0.1-1.4,0.3-2.3,0.6v8.4h-4.9
	v-7.2c-3,0.5-7.2,1-12.7,1.4v-4.7l2.5-0.2V21.5H229.3z M236.5,21.5v6.2h5.1v-6.2H236.5z M236.5,31.7v6.2h5.1v-6.2H236.5z
	 M236.5,48.7c1.7,0,3.4-0.2,5.1-0.6v-6.3h-5.1V48.7z M249.6,25.2v-4.1h3.1c-0.8-1.8-1.3-3.7-1.6-5.7h5.5c0.2,2,0.8,3.9,1.8,5.7h5.1
	c0.8-1.7,1.3-3.6,1.5-5.5h5.7c-0.3,1.9-0.8,3.7-1.6,5.5h3.7v4.1h-9v10.2h10.4v4.1H264c0.5,6.5,3.9,11.9,10.1,16.2v4.1
	c-6.5-3.1-10.9-7.2-13.3-12.1c-2.6,5.1-7,9.1-13.1,12.1v-3.9c6.1-4.6,9.5-10,10-16.4h-9.4v-4.1h9.5V25.2L249.6,25.2z"/>
</svg>
