<?xml version="1.0" encoding="UTF-8"?>
<svg width="71px" height="24px" viewBox="0 0 71 24" version="1.1" xmlns="http://www.w3.org/2000/svg" xmlns:xlink="http://www.w3.org/1999/xlink">
    <title>编组 8备份 2</title>
    <g id="设备管理" stroke="none" stroke-width="1" fill="none" fill-rule="evenodd">
        <g id="产能运算配置" transform="translate(-23.000000, -20.000000)" fill-rule="nonzero">
            <g id="编组-8备份-2" transform="translate(23.000000, 20.000000)">
                <polygon id="路径" fill="#99D5D4" points="47.0918367 0 47.0918367 4.0754717 38.5771751 4.0754717 38.5771751 24 34.5962943 24 34.5962943 4.0754717 26.0816327 4.0754717 26.0816327 0"></polygon>
                <path d="M0,4.60647285 C0,3.80949138 0.182162455,3.47050672 0.430493539,2.96815962 C1.38750727,1.03222367 3.20126874,0 5.51729667,0 C8.43430003,0 10.5241087,1.68279919 10.9885961,4.30043426 L14.9549653,17.1483254 C15.4449174,18.5076724 16.0638593,19.1873459 16.811791,19.1873459 C17.701054,19.1873459 18.4369386,18.5332796 18.4486575,17.1952773 L18.4488619,0.111352762 L22.4498199,0.111352762 L22.4498199,17.1483254 C22.4840487,17.9084832 22.4744359,19.7988161 21.5080774,21.02039 C20.3582371,22.4739033 19.0335108,23.2727273 16.811791,23.2727273 C14.344937,23.2727273 12.647734,22.2153268 11.6268057,19.1873459 L7.64829645,6.6772563 L7.11376167,5.01087429 C6.88790613,4.34275772 6.47794129,4.14129238 5.51729667,4.14129238 C4.55665205,4.14129238 4.00095799,4.83059666 4.00095799,5.53566981 C4.00095799,6.00571858 4.00095799,11.8809535 4.00095799,23.1613745 L0,23.1613745 C0,11.322761 0,5.13779382 0,4.60647285 Z" id="路径" fill="#0E4BA1"></path>
                <polygon id="路径" fill="#5FBC4D" points="55.0252124 24 49.9897959 24 57.5972428 11.5185928 50.3530367 0 55.0252124 0 60.494898 9.39044079 65.9645836 0 70.6367592 0 63.3925531 11.5185928 71 24 65.9645836 24 60.494898 14.2237507"></polygon>
            </g>
        </g>
    </g>
</svg>